<?xml version="1.0" standalone="no"?><!DOCTYPE svg PUBLIC "-//W3C//DTD SVG 1.1//EN" "http://www.w3.org/Graphics/SVG/1.1/DTD/svg11.dtd"><svg t="1676714381992" class="icon" viewBox="0 0 1024 1024" version="1.1" xmlns="http://www.w3.org/2000/svg" p-id="6969" xmlns:xlink="http://www.w3.org/1999/xlink" width="200" height="200"><path d="M856.74 551.62c-20.52-4.93-40.82 7.52-45.78 27.82-33.35 136.82-155.09 232.35-296.11 232.35-135.71 0-256.3-91.11-293.22-221.54-0.27-0.97-0.99-1.64-1.33-2.57-0.99-2.75-2.36-5.15-3.91-7.57-1.05-1.59-1.97-3.17-3.24-4.57-2.29-2.66-4.95-4.71-7.87-6.63-0.96-0.61-1.83-1.28-2.85-1.81-3.06-1.61-6.25-2.54-9.71-3.18-1.84-0.38-3.59-0.66-5.48-0.77-1.11-0.02-2.1-0.55-3.23-0.45-1.6 0.05-2.94 0.8-4.48 1.05-1.57 0.24-3.11-0.08-4.67 0.36-0.99 0.28-1.68 1-2.61 1.35-2.47 0.91-4.61 2.12-6.81 3.5-2.05 1.28-4 2.51-5.72 4.12-1.78 1.64-3.16 3.47-4.59 5.42-1.46 1.99-2.82 3.91-3.87 6.14-0.99 2.1-1.55 4.28-2.16 6.56-0.67 2.55-1.18 5.01-1.31 7.68-0.04 0.99-0.51 1.84-0.48 2.84l4.71 152.97c0.62 20.52 17.46 36.73 37.84 36.73 0.39 0 0.79 0 1.18-0.02 20.2-0.62 35.85-17.03 36.36-36.98 70.83 81.91 174.54 133.15 287.45 133.15 176.06 0 328.1-119.33 369.71-290.16 4.96-20.36-7.49-40.85-27.82-45.79zM850.11 253.57c-15.11 0-27.92 9.01-34 21.8-70.48-91.05-180.71-148.8-301.25-148.8-175.37 0-327.26 118.76-369.36 288.8-5.03 20.3 7.35 40.85 27.67 45.88 20.37 5.16 40.87-7.35 45.88-27.67 33.72-136.15 155.34-231.24 295.81-231.24 143.28 0 268.68 101.57 298.18 241.52 0.3 1.4 1.11 2.51 1.54 3.84 0.62 1.87 1.26 3.61 2.15 5.34 1.29 2.54 2.86 4.77 4.66 6.92 1.13 1.37 2.16 2.72 3.48 3.91 2.26 2.04 4.77 3.57 7.44 5.02 1.38 0.75 2.59 1.69 4.07 2.27 4.32 1.7 8.89 2.78 13.69 2.78h0.05c0.02 0 0.04-0.01 0.05-0.01 2.57-0.01 5.17-0.27 7.77-0.8 1.23-0.26 2.16-1.07 3.34-1.44 2.48-0.78 4.72-1.76 6.96-3 2.13-1.19 4.07-2.44 5.91-3.98 1.85-1.56 3.43-3.23 4.96-5.11 1.54-1.91 2.87-3.81 4.02-5.98 1.12-2.09 1.94-4.22 2.65-6.53 0.78-2.46 1.27-4.88 1.52-7.48 0.12-1.23 0.72-2.29 0.72-3.55v-144.6c-0.03-20.92-17-37.89-37.91-37.89z" p-id="6970" fill="#707070"></path><path d="M371.43 556.68c-20.92 0-37.89 16.97-37.89 37.89s16.97 37.89 37.89 37.89h103.59l-0.86 70.22c-0.25 20.92 16.5 38.08 37.42 38.35h0.47c20.72 0 37.64-16.65 37.89-37.42l0.88-71.16h95.22c20.92 0 37.89-16.97 37.89-37.89s-16.97-37.89-37.89-37.89h-94.29l0.26-21.06h94.04c20.92 0 37.89-16.97 37.89-37.89s-16.97-37.89-37.89-37.89h-43.76l66.03-70.12c14.36-15.24 13.64-39.22-1.6-53.55-15.22-14.36-39.22-13.69-53.55 1.6l-99.13 105.25-103.61-105.78c-14.6-14.95-38.63-15.17-53.57-0.54s-15.19 38.63-0.54 53.57l68.14 69.58h-53.02c-20.92 0-37.89 16.97-37.89 37.89s16.97 37.89 37.89 37.89h104.78l-0.26 21.06H371.43z" p-id="6971" fill="#707070"></path></svg>