<?xml version="1.0" standalone="no"?><!DOCTYPE svg PUBLIC "-//W3C//DTD SVG 1.1//EN" "http://www.w3.org/Graphics/SVG/1.1/DTD/svg11.dtd"><svg t="1676635928638" class="icon" viewBox="0 0 1024 1024" version="1.1" xmlns="http://www.w3.org/2000/svg" p-id="2786" xmlns:xlink="http://www.w3.org/1999/xlink" width="200" height="200"><path d="M1024 1024s0-70.4-5.888-107.2128c-4.7872-29.056-45.056-67.456-216.2432-130.3808-168.5248-61.8752-158.1312-31.744-158.1312-145.6128 0-73.856 37.6064-30.9248 61.5936-171.1872 9.344-55.2192 16.7936-18.4064 37.0688-106.9312 10.6752-46.4128-7.1936-49.8688-5.0688-72.0128 2.1248-22.1184 4.2752-41.856 8.2688-87.1936C750.4128 147.456 698.3936 0 512 0s-238.4128 147.456-233.344 203.7248c4.0192 45.056 6.144 65.0752 8.2688 87.2192 2.1504 22.1184-15.7184 25.6-5.0688 71.9872 20.2752 88.2688 27.7504 51.456 37.0688 106.9312 24.0128 140.288 61.6192 97.3312 61.6192 171.2128 0 114.1248 10.3936 83.968-158.1568 145.5872C51.2 849.3312 10.7008 888.0128 6.144 917.0688 0 953.6 0 1024 0 1024h1024z" fill="#000000" p-id="2787"></path></svg>